<mxfile host="Electron" modified="2023-09-24T08:52:45.992Z" agent="Mozilla/5.0 (Macintosh; Intel Mac OS X 10_15_7) AppleWebKit/537.36 (KHTML, like Gecko) draw.io/21.5.0 Chrome/112.0.5615.204 Electron/24.5.1 Safari/537.36" etag="G_1Uw1l3TkBQ9pVjKgyX" version="21.5.0" type="device">
  <diagram name="ページ1" id="7J2CgTF_vPkIWC_XMxTW">
    <mxGraphModel dx="1114" dy="801" grid="1" gridSize="10" guides="1" tooltips="1" connect="1" arrows="1" fold="1" page="1" pageScale="1" pageWidth="827" pageHeight="1169" math="0" shadow="0">
      <root>
        <mxCell id="0" />
        <mxCell id="1" parent="0" />
        <mxCell id="Cl9HvFKvnGNETmpKE8OA-1" value="" style="endArrow=classic;html=1;rounded=0;" edge="1" parent="1">
          <mxGeometry width="50" height="50" relative="1" as="geometry">
            <mxPoint x="110" y="300" as="sourcePoint" />
            <mxPoint x="550" y="300" as="targetPoint" />
          </mxGeometry>
        </mxCell>
        <mxCell id="Cl9HvFKvnGNETmpKE8OA-2" value="" style="endArrow=none;html=1;rounded=0;" edge="1" parent="1">
          <mxGeometry width="50" height="50" relative="1" as="geometry">
            <mxPoint x="130" y="320" as="sourcePoint" />
            <mxPoint x="130" y="280" as="targetPoint" />
          </mxGeometry>
        </mxCell>
        <mxCell id="Cl9HvFKvnGNETmpKE8OA-3" value="t=0" style="text;html=1;align=center;verticalAlign=middle;resizable=0;points=[];autosize=1;strokeColor=none;fillColor=none;" vertex="1" parent="1">
          <mxGeometry x="110" y="320" width="40" height="30" as="geometry" />
        </mxCell>
        <mxCell id="Cl9HvFKvnGNETmpKE8OA-4" value="" style="endArrow=none;html=1;rounded=0;" edge="1" parent="1">
          <mxGeometry width="50" height="50" relative="1" as="geometry">
            <mxPoint x="380" y="320" as="sourcePoint" />
            <mxPoint x="380" y="280" as="targetPoint" />
          </mxGeometry>
        </mxCell>
        <mxCell id="Cl9HvFKvnGNETmpKE8OA-5" value="t=x" style="text;html=1;align=center;verticalAlign=middle;resizable=0;points=[];autosize=1;strokeColor=none;fillColor=none;" vertex="1" parent="1">
          <mxGeometry x="360" y="320" width="40" height="30" as="geometry" />
        </mxCell>
        <mxCell id="Cl9HvFKvnGNETmpKE8OA-6" value="" style="endArrow=none;html=1;rounded=0;" edge="1" parent="1">
          <mxGeometry width="50" height="50" relative="1" as="geometry">
            <mxPoint x="440" y="320" as="sourcePoint" />
            <mxPoint x="440" y="280" as="targetPoint" />
          </mxGeometry>
        </mxCell>
        <mxCell id="Cl9HvFKvnGNETmpKE8OA-7" value="t=x+Δt" style="text;html=1;align=center;verticalAlign=middle;resizable=0;points=[];autosize=1;strokeColor=none;fillColor=none;" vertex="1" parent="1">
          <mxGeometry x="410" y="320" width="60" height="30" as="geometry" />
        </mxCell>
        <mxCell id="Cl9HvFKvnGNETmpKE8OA-8" value="" style="shape=curlyBracket;whiteSpace=wrap;html=1;rounded=1;labelPosition=left;verticalLabelPosition=middle;align=right;verticalAlign=middle;direction=north;" vertex="1" parent="1">
          <mxGeometry x="140" y="360" width="230" height="20" as="geometry" />
        </mxCell>
        <mxCell id="Cl9HvFKvnGNETmpKE8OA-9" value="事象が発生しない" style="text;html=1;align=center;verticalAlign=middle;resizable=0;points=[];autosize=1;strokeColor=none;fillColor=none;" vertex="1" parent="1">
          <mxGeometry x="200" y="380" width="120" height="30" as="geometry" />
        </mxCell>
        <mxCell id="Cl9HvFKvnGNETmpKE8OA-10" value="" style="shape=curlyBracket;whiteSpace=wrap;html=1;rounded=1;labelPosition=left;verticalLabelPosition=middle;align=right;verticalAlign=middle;direction=north;" vertex="1" parent="1">
          <mxGeometry x="380" y="360" width="60" height="20" as="geometry" />
        </mxCell>
        <mxCell id="Cl9HvFKvnGNETmpKE8OA-11" value="事象が発生する" style="text;html=1;align=center;verticalAlign=middle;resizable=0;points=[];autosize=1;strokeColor=none;fillColor=none;" vertex="1" parent="1">
          <mxGeometry x="365" y="380" width="110" height="30" as="geometry" />
        </mxCell>
      </root>
    </mxGraphModel>
  </diagram>
</mxfile>
